<?xml version="1.0" encoding="UTF-8"?>
<svg version="1.1" xmlns="http://www.w3.org/2000/svg" width="512" height="512">
<path d="M0 0 C2.29989624 0.40867615 2.29989624 0.40867615 4.29989624 2.40867615 C4.57836914 4.47145081 4.57836914 4.47145081 4.6187439 7.04197693 C4.64854843 8.48324448 4.64854843 8.48324448 4.67895508 9.95362854 C4.69628189 11.51305679 4.69628189 11.51305679 4.71395874 13.10398865 C4.74300797 14.69785904 4.74300797 14.69785904 4.77264404 16.32392883 C4.83255708 19.72709558 4.87887222 23.13029593 4.92489624 26.53367615 C4.96306521 28.83707654 5.00211629 31.14046251 5.04208374 33.4438324 C5.13826811 39.09865243 5.22328105 44.75355898 5.29989624 50.40867615 C6.15369873 49.53130798 6.15369873 49.53130798 7.02474976 48.63621521 C9.62924588 45.96903344 12.24564251 43.31383088 14.86239624 40.65867615 C15.75765015 39.73828552 16.65290405 38.8178949 17.57528687 37.86961365 C28.21945767 27.10847394 28.21945767 27.10847394 35.39755249 25.87742615 C41.50496128 25.94179936 45.60841162 26.06905287 50.29989624 30.40867615 C54.0954392 34.71713032 55.49648233 37.25494606 55.73739624 42.97117615 C55.79798218 43.96246521 55.85856812 44.95375427 55.92098999 45.9750824 C54.26092807 55.15240584 46.34824458 61.74759701 39.92489624 67.97117615 C39.09345093 68.7890863 38.26200562 69.60699646 37.40536499 70.44969177 C35.3769493 72.44313478 33.34052328 74.4277599 31.29989624 76.40867615 C31.89680267 76.416763 32.49370911 76.42484985 33.10870361 76.43318176 C39.30530594 76.51904811 45.50158172 76.61854308 51.69784546 76.72605896 C54.01224293 76.76441016 56.32670126 76.79925204 58.64120483 76.83055115 C61.96255288 76.87606855 65.28347965 76.93408457 68.60458374 76.99461365 C69.64420258 77.00616486 70.68382141 77.01771606 71.75494385 77.02961731 C72.71578888 77.049487 73.67663391 77.06935669 74.66659546 77.08982849 C75.51486908 77.10315216 76.3631427 77.11647583 77.23712158 77.13020325 C79.29989624 77.40867615 79.29989624 77.40867615 81.29989624 79.40867615 C81.70857239 81.70857239 81.70857239 81.70857239 81.29989624 84.40867615 C79.42430115 86.92591858 79.42430115 86.92591858 76.76107788 89.6103363 C76.27810242 90.10367966 75.79512695 90.59702301 75.29751587 91.10531616 C73.69753546 92.73239262 72.07983635 94.34039277 70.46005249 95.94773865 C69.33752017 97.07618165 68.21565782 98.20529147 67.09443665 99.33503723 C64.73941428 101.70194733 62.37532235 104.05931682 60.00473022 106.41062927 C56.97991722 109.41264218 53.98050988 112.43864262 50.98780155 115.47262001 C48.67433976 117.81177508 46.34683405 120.13655271 44.01507378 122.45745468 C42.90424752 123.56680163 41.79794593 124.68069976 40.69645882 125.79932022 C28.32821511 138.3284109 28.32821511 138.3284109 18.71852112 138.43815613 C15.80531188 138.29422728 12.92435569 138.01851043 10.02255249 137.7250824 C-18.1738695 135.25680735 -18.1738695 135.25680735 -42.75479126 147.03367615 C-51.34766372 154.9502807 -58.79638156 164.00633729 -65.70010376 173.40867615 C-65.29507629 173.94638641 -64.89004883 174.48409668 -64.4727478 175.0381012 C-63.93772644 175.74965363 -63.40270508 176.46120605 -62.85147095 177.19432068 C-62.32269348 177.89703094 -61.79391602 178.59974121 -61.24911499 179.32374573 C-39.26553159 208.9130998 -21.16737963 247.79074553 -21.63760376 285.40867615 C-21.6466272 286.35742615 -21.65565063 287.30617615 -21.66494751 288.28367615 C-21.68234985 289.33555115 -21.68234985 289.33555115 -21.70010376 290.40867615 C-20.92279907 290.52984802 -20.14549438 290.6510199 -19.34463501 290.77586365 C-16.70010376 291.40867615 -16.70010376 291.40867615 -14.38760376 293.53367615 C-12.23170031 297.20669684 -12.02560413 299.21178954 -12.70010376 303.40867615 C-14.95010376 306.34617615 -14.95010376 306.34617615 -17.70010376 308.40867615 C-19.02010376 308.40867615 -20.34010376 308.40867615 -21.70010376 308.40867615 C-21.64789673 309.25172302 -21.64789673 309.25172302 -21.59463501 310.11180115 C-20.10927659 356.22864359 -44.38152335 402.77204007 -75.08462524 435.65013123 C-110.02969043 472.35111743 -158.04168708 494.24187071 -208.70010376 496.40867615 C-208.96822876 497.35742615 -209.23635376 498.30617615 -209.51260376 499.28367615 C-210.70010376 502.40867615 -210.70010376 502.40867615 -213.70010376 504.40867615 C-216.76437879 504.9447832 -219.63714395 504.96155698 -222.70010376 504.40867615 C-225.26260376 502.09617615 -225.26260376 502.09617615 -226.70010376 499.40867615 C-226.70010376 498.41867615 -226.70010376 497.42867615 -226.70010376 496.40867615 C-227.24610229 496.37427429 -227.79210083 496.33987244 -228.35464478 496.3044281 C-277.41191088 493.01627091 -320.21447507 474.29890192 -355.70010376 440.40867615 C-356.62565063 439.53598083 -357.55119751 438.66328552 -358.50479126 437.7641449 C-392.27540931 405.09370279 -410.82308108 359.79775949 -414.70010376 313.40867615 C-414.7179848 311.7421054 -414.722839 310.07518774 -414.70010376 308.40867615 C-415.46322876 308.30555115 -416.22635376 308.20242615 -417.01260376 308.09617615 C-419.98360113 307.33615356 -420.84067266 306.78105376 -422.70010376 304.40867615 C-423.32309912 301.36105019 -423.20423996 298.47227306 -422.70010376 295.40867615 C-420.37721474 292.09026326 -418.54119168 291.24790544 -414.70010376 290.40867615 C-414.6657019 289.86267761 -414.63130005 289.31667908 -414.59585571 288.75413513 C-410.95114445 234.37730333 -387.5925617 186.39757523 -346.86807251 150.0844574 C-316.21369474 123.87724625 -273.31991163 102.8789056 -232.20010376 103.34617615 C-230.63776001 103.3597113 -230.63776001 103.3597113 -229.04385376 103.3735199 C-228.27041626 103.38512146 -227.49697876 103.39672302 -226.70010376 103.40867615 C-226.61760376 102.48055115 -226.53510376 101.55242615 -226.45010376 100.59617615 C-225.70010376 97.40867615 -225.70010376 97.40867615 -224.07510376 95.53367615 C-220.71285424 93.94103164 -218.37960806 93.9568072 -214.70010376 94.40867615 C-211.82510376 96.09617615 -211.82510376 96.09617615 -209.70010376 98.40867615 C-209.06729126 101.0532074 -209.06729126 101.0532074 -208.70010376 103.40867615 C-208.13807251 103.37387146 -207.57604126 103.33906677 -206.99697876 103.3032074 C-178.31523916 102.37940904 -148.60945662 112.96450342 -123.70010376 126.40867615 C-123.08796021 126.73480896 -122.47581665 127.06094177 -121.84512329 127.3969574 C-114.23088891 131.47956958 -107.22730598 136.01383846 -100.41885376 141.33055115 C-97.59110256 143.49199316 -94.66876866 145.44698074 -91.70010376 147.40867615 C-68.68472857 130.90340083 -68.68472857 130.90340083 -56.03994751 106.74168396 C-54.43519873 94.1535404 -55.05037832 81.24040365 -56.32449341 68.64027405 C-57.06756615 60.65629709 -56.65242575 55.05893834 -51.48387146 48.66851807 C-48.58851057 45.44630033 -45.51232024 42.41191247 -42.42666626 39.3735199 C-41.2985493 38.24389859 -40.1713978 37.11331236 -39.04516602 35.98181152 C-36.69253694 33.62486871 -34.3297472 31.2787756 -31.95889282 28.94017029 C-28.92139609 25.94261239 -25.90927461 22.92095852 -22.90404701 19.89108944 C-20.5849693 17.55783764 -18.25392023 15.23685661 -15.91895676 12.9195118 C-14.80306502 11.80946501 -13.69072558 10.69583527 -12.58205032 9.57858086 C-11.03380099 8.02234362 -9.47038964 6.48315468 -7.90176392 4.94749451 C-7.01590607 4.06863083 -6.13004822 3.18976715 -5.21734619 2.28427124 C-2.70010376 0.40867615 -2.70010376 0.40867615 0 0 Z " fill="#E54C3C" transform="translate(422.7001037597656,7.5913238525390625)"/>
<path d="M0 0 C2.29989624 0.40867615 2.29989624 0.40867615 4.29989624 2.40867615 C4.57836914 4.47145081 4.57836914 4.47145081 4.6187439 7.04197693 C4.64854843 8.48324448 4.64854843 8.48324448 4.67895508 9.95362854 C4.69628189 11.51305679 4.69628189 11.51305679 4.71395874 13.10398865 C4.74300797 14.69785904 4.74300797 14.69785904 4.77264404 16.32392883 C4.83255708 19.72709558 4.87887222 23.13029593 4.92489624 26.53367615 C4.96306521 28.83707654 5.00211629 31.14046251 5.04208374 33.4438324 C5.13826811 39.09865243 5.22328105 44.75355898 5.29989624 50.40867615 C6.15369873 49.53130798 6.15369873 49.53130798 7.02474976 48.63621521 C9.62924588 45.96903344 12.24564251 43.31383088 14.86239624 40.65867615 C15.75765015 39.73828552 16.65290405 38.8178949 17.57528687 37.86961365 C28.21945767 27.10847394 28.21945767 27.10847394 35.39755249 25.87742615 C41.50496128 25.94179936 45.60841162 26.06905287 50.29989624 30.40867615 C54.0954392 34.71713032 55.49648233 37.25494606 55.73739624 42.97117615 C55.79798218 43.96246521 55.85856812 44.95375427 55.92098999 45.9750824 C54.26092807 55.15240584 46.34824458 61.74759701 39.92489624 67.97117615 C39.09345093 68.7890863 38.26200562 69.60699646 37.40536499 70.44969177 C35.3769493 72.44313478 33.34052328 74.4277599 31.29989624 76.40867615 C31.89680267 76.416763 32.49370911 76.42484985 33.10870361 76.43318176 C39.30530594 76.51904811 45.50158172 76.61854308 51.69784546 76.72605896 C54.01224293 76.76441016 56.32670126 76.79925204 58.64120483 76.83055115 C61.96255288 76.87606855 65.28347965 76.93408457 68.60458374 76.99461365 C69.64420258 77.00616486 70.68382141 77.01771606 71.75494385 77.02961731 C72.71578888 77.049487 73.67663391 77.06935669 74.66659546 77.08982849 C75.51486908 77.10315216 76.3631427 77.11647583 77.23712158 77.13020325 C79.29989624 77.40867615 79.29989624 77.40867615 81.29989624 79.40867615 C81.70857239 81.70857239 81.70857239 81.70857239 81.29989624 84.40867615 C79.42430115 86.92591858 79.42430115 86.92591858 76.76107788 89.6103363 C76.27810242 90.10367966 75.79512695 90.59702301 75.29751587 91.10531616 C73.69753546 92.73239262 72.07983635 94.34039277 70.46005249 95.94773865 C69.33752017 97.07618165 68.21565782 98.20529147 67.09443665 99.33503723 C64.73941428 101.70194733 62.37532235 104.05931682 60.00473022 106.41062927 C56.97991722 109.41264218 53.98050988 112.43864262 50.98780155 115.47262001 C48.67433976 117.81177508 46.34683405 120.13655271 44.01507378 122.45745468 C42.90424752 123.56680163 41.79794593 124.68069976 40.69645882 125.79932022 C28.32821511 138.3284109 28.32821511 138.3284109 18.71852112 138.43815613 C15.80530337 138.29422686 12.92435343 138.01862373 10.02255249 137.7250824 C-17.99561306 135.23709772 -17.99561306 135.23709772 -42.47354126 146.7875824 C-49.91645157 153.6529688 -56.41878296 161.43898885 -62.51187134 169.5087738 C-65.2063184 172.97174495 -68.18984358 175.71784465 -71.53877258 178.53746033 C-75.71926339 182.1568041 -79.55382042 186.14123099 -83.45010376 190.0610199 C-84.34882202 190.96115311 -85.24754028 191.86128632 -86.17349243 192.78869629 C-88.53596951 195.15578878 -90.89625488 197.52502254 -93.25546265 199.89537048 C-95.67395557 202.32418357 -98.09536322 204.75008718 -100.51651001 207.17625427 C-105.2470333 211.91774984 -109.97468349 216.66209513 -114.70010376 221.40867615 C-113.29056807 225.05860377 -111.70025767 228.09723475 -109.51260376 231.34617615 C-97.92010244 249.34949941 -90.23418264 269.8155484 -90.70010376 291.40867615 C-91.28501587 291.41802185 -91.86992798 291.42736755 -92.4725647 291.43699646 C-95.13258956 291.49080894 -97.79087598 291.57443064 -100.45010376 291.65867615 C-101.37049438 291.67285583 -102.29088501 291.68703552 -103.23916626 291.7016449 C-108.6256644 291.84425398 -108.6256644 291.84425398 -113.30557251 294.2719574 C-115.25917035 297.26528519 -115.34430318 298.90136817 -114.70010376 302.40867615 C-112.63928884 305.24020234 -111.01254799 307.11261961 -107.50845337 307.90306091 C-104.95864469 308.12411032 -102.44677349 308.20400051 -99.88760376 308.22117615 C-99.00395142 308.24631287 -98.12029907 308.27144958 -97.20986938 308.29734802 C-95.04042242 308.35598172 -92.87021649 308.38525 -90.70010376 308.40867615 C-90.23789484 333.34076881 -101.31494689 359.18389607 -116.70010376 378.40867615 C-117.14370239 378.96442322 -117.58730103 379.52017029 -118.04434204 380.09275818 C-124.56898869 388.19163336 -131.28535651 395.21140737 -139.70010376 401.40867615 C-140.66045532 402.14473083 -141.62080688 402.88078552 -142.61026001 403.6391449 C-161.35415646 417.40678566 -186.17125302 427.7218171 -209.70010376 427.40867615 C-209.71412231 426.47801331 -209.71412231 426.47801331 -209.72842407 425.52854919 C-209.78211371 422.71694937 -209.86576022 419.90701635 -209.95010376 417.09617615 C-209.96428345 416.1197113 -209.97846313 415.14324646 -209.99307251 414.13719177 C-210.02529907 413.1993988 -210.05752563 412.26160583 -210.09072876 411.2953949 C-210.11167603 410.43132019 -210.13262329 409.56724548 -210.15420532 408.67698669 C-210.5212185 406.26824278 -210.5212185 406.26824278 -212.5194397 404.63059998 C-215.74306185 402.82425998 -218.07386043 402.95539573 -221.70010376 403.40867615 C-224.07380789 404.72953315 -224.07380789 404.72953315 -225.70010376 407.40867615 C-226.33478533 410.81820066 -226.39677404 414.19709248 -226.45010376 417.65867615 C-226.49457642 419.06246521 -226.49457642 419.06246521 -226.53994751 420.49461365 C-226.6105018 422.79938707 -226.66326628 425.10315782 -226.70010376 427.40867615 C-246.29545476 426.03605494 -263.53097051 420.94063864 -280.70010376 411.40867615 C-281.59729126 410.92785583 -282.49447876 410.44703552 -283.41885376 409.9516449 C-310.95491047 394.44026231 -330.71426427 368.07086153 -340.12295532 338.21385193 C-340.60237157 336.71435797 -341.12618932 335.22914661 -341.66104126 333.7485199 C-344.47991743 325.61285255 -344.91107861 316.93014777 -345.70010376 308.40867615 C-345.14548462 308.38362 -344.59086548 308.35856384 -344.0194397 308.33274841 C-341.49611533 308.21639688 -338.9731284 308.09384861 -336.45010376 307.97117615 C-335.57740845 307.93185974 -334.70471313 307.89254333 -333.80557251 307.85203552 C-332.96123657 307.81014099 -332.11690063 307.76824646 -331.24697876 307.7250824 C-330.47192993 307.68842468 -329.6968811 307.65176697 -328.89834595 307.61399841 C-326.68879152 307.40761955 -324.78160922 307.19024087 -322.70010376 306.40867615 C-321.83903707 303.82547609 -321.48356757 302.07545991 -321.38760376 299.40867615 C-321.35022095 298.72805115 -321.31283813 298.04742615 -321.27432251 297.34617615 C-321.54069447 295.25018323 -321.54069447 295.25018323 -323.42886353 293.81956482 C-326.00001003 292.22237513 -327.4667623 291.99307812 -330.46572876 291.8969574 C-331.35518188 291.86150818 -332.24463501 291.82605896 -333.16104126 291.78953552 C-334.08143188 291.76697693 -335.00182251 291.74441833 -335.95010376 291.72117615 C-336.88596313 291.68701599 -337.82182251 291.65285583 -338.78604126 291.61766052 C-341.09060909 291.53535453 -343.39480495 291.46614985 -345.70010376 291.40867615 C-346.47824657 263.92467192 -332.82389083 237.07435402 -315.70010376 216.40867615 C-314.6985022 215.17697693 -314.6985022 215.17697693 -313.67666626 213.9203949 C-308.63324189 207.96091997 -302.86971058 203.16565575 -296.70010376 198.40867615 C-295.85834595 197.73965271 -295.01658813 197.07062927 -294.14932251 196.3813324 C-275.05029366 181.74550604 -250.88111265 171.97079067 -226.70010376 172.40867615 C-226.64402954 174.27072693 -226.64402954 174.27072693 -226.58682251 176.1703949 C-226.52114426 177.81235126 -226.45469756 179.45427702 -226.38760376 181.09617615 C-226.36504517 181.91279724 -226.34248657 182.72941833 -226.31924438 183.57078552 C-226.11170738 188.23093461 -225.84026582 191.70357839 -222.70010376 195.40867615 C-218.94345604 196.36491375 -215.32652529 197.08240916 -211.70010376 195.40867615 C-210.77001486 192.61840945 -210.51311607 190.64338073 -210.38369751 187.7407074 C-210.34180298 186.84803162 -210.29990845 185.95535583 -210.25674438 185.03562927 C-210.21742798 184.10685974 -210.17811157 183.17809021 -210.13760376 182.22117615 C-210.07282837 180.81061951 -210.07282837 180.81061951 -210.00674438 179.37156677 C-209.90071711 177.05074761 -209.79865347 174.7298229 -209.70010376 172.40867615 C-185.79489506 171.86053123 -160.51678456 181.9343063 -141.70010376 196.40867615 C-138.1832702 194.90502214 -135.91786734 192.87434472 -133.22622681 190.17771912 C-132.34818893 189.30275787 -131.47015106 188.42779663 -130.56550598 187.52632141 C-129.61410012 186.56801222 -128.66287692 185.60952164 -127.71182251 184.65086365 C-126.72576333 183.66361076 -125.73933243 182.67672901 -124.75254822 181.69020081 C-122.68418179 179.62027117 -120.61921266 177.54703094 -118.55679321 175.47117615 C-115.93281521 172.83030905 -113.3024046 170.19597061 -110.66958904 167.56391716 C-108.62991859 165.52397249 -106.59288265 163.48141367 -104.55668068 161.43800735 C-103.58897082 160.46714685 -102.62068192 159.4968631 -101.65176964 158.52720261 C-97.28254122 154.1509096 -92.96644772 149.78994495 -88.97427368 145.06419373 C-86.43781013 142.10949604 -83.84405132 139.81967476 -80.66389465 137.58653259 C-71.02373441 130.8119769 -60.00528879 122.19768768 -56.89840698 110.35203552 C-54.64772237 96.72408333 -55.37123667 82.51198849 -56.47776794 68.79356384 C-57.0499069 60.79166911 -56.65782523 55.06587433 -51.48469543 48.66934204 C-48.5890302 45.44687543 -45.51259756 42.41218554 -42.42666626 39.3735199 C-41.2985493 38.24389859 -40.1713978 37.11331236 -39.04516602 35.98181152 C-36.69253694 33.62486871 -34.3297472 31.2787756 -31.95889282 28.94017029 C-28.92139609 25.94261239 -25.90927461 22.92095852 -22.90404701 19.89108944 C-20.5849693 17.55783764 -18.25392023 15.23685661 -15.91895676 12.9195118 C-14.80306502 11.80946501 -13.69072558 10.69583527 -12.58205032 9.57858086 C-11.03380099 8.02234362 -9.47038964 6.48315468 -7.90176392 4.94749451 C-7.01590607 4.06863083 -6.13004822 3.18976715 -5.21734619 2.28427124 C-2.70010376 0.40867615 -2.70010376 0.40867615 0 0 Z " fill="#EBEFF0" transform="translate(422.7001037597656,7.5913238525390625)"/>
<path d="M0 0 C2.29989624 0.40867615 2.29989624 0.40867615 4.29989624 2.40867615 C4.57836914 4.47145081 4.57836914 4.47145081 4.6187439 7.04197693 C4.64854843 8.48324448 4.64854843 8.48324448 4.67895508 9.95362854 C4.69628189 11.51305679 4.69628189 11.51305679 4.71395874 13.10398865 C4.74300797 14.69785904 4.74300797 14.69785904 4.77264404 16.32392883 C4.83255708 19.72709558 4.87887222 23.13029593 4.92489624 26.53367615 C4.96306521 28.83707654 5.00211629 31.14046251 5.04208374 33.4438324 C5.13826811 39.09865243 5.22328105 44.75355898 5.29989624 50.40867615 C5.8690979 49.82376404 6.43829956 49.23885193 7.02474976 48.63621521 C9.62924588 45.96903344 12.24564251 43.31383088 14.86239624 40.65867615 C15.75765015 39.73828552 16.65290405 38.8178949 17.57528687 37.86961365 C28.21945767 27.10847394 28.21945767 27.10847394 35.39755249 25.87742615 C41.50496128 25.94179936 45.60841162 26.06905287 50.29989624 30.40867615 C54.0954392 34.71713032 55.49648233 37.25494606 55.73739624 42.97117615 C55.79798218 43.96246521 55.85856812 44.95375427 55.92098999 45.9750824 C54.26092807 55.15240584 46.34824458 61.74759701 39.92489624 67.97117615 C39.09345093 68.7890863 38.26200562 69.60699646 37.40536499 70.44969177 C35.3769493 72.44313478 33.34052328 74.4277599 31.29989624 76.40867615 C31.89680267 76.416763 32.49370911 76.42484985 33.10870361 76.43318176 C39.30530594 76.51904811 45.50158172 76.61854308 51.69784546 76.72605896 C54.01224293 76.76441016 56.32670126 76.79925204 58.64120483 76.83055115 C61.96255288 76.87606855 65.28347965 76.93408457 68.60458374 76.99461365 C69.64420258 77.00616486 70.68382141 77.01771606 71.75494385 77.02961731 C72.71578888 77.049487 73.67663391 77.06935669 74.66659546 77.08982849 C75.51486908 77.10315216 76.3631427 77.11647583 77.23712158 77.13020325 C79.29989624 77.40867615 79.29989624 77.40867615 81.29989624 79.40867615 C81.70857239 81.70857239 81.70857239 81.70857239 81.29989624 84.40867615 C79.42430115 86.92591858 79.42430115 86.92591858 76.76107788 89.6103363 C76.27810242 90.10367966 75.79512695 90.59702301 75.29751587 91.10531616 C73.69753546 92.73239262 72.07983635 94.34039277 70.46005249 95.94773865 C69.33752017 97.07618165 68.21565782 98.20529147 67.09443665 99.33503723 C64.73941428 101.70194733 62.37532235 104.05931682 60.00473022 106.41062927 C56.97991722 109.41264218 53.98050988 112.43864262 50.98780155 115.47262001 C48.67433976 117.81177508 46.34683405 120.13655271 44.01507378 122.45745468 C42.90424752 123.56680163 41.79794593 124.68069976 40.69645882 125.79932022 C28.32821511 138.3284109 28.32821511 138.3284109 18.71852112 138.43815613 C15.80530337 138.29422686 12.92435343 138.01862373 10.02255249 137.7250824 C-17.99561306 135.23709772 -17.99561306 135.23709772 -42.47354126 146.7875824 C-49.91645157 153.6529688 -56.41878296 161.43898885 -62.51187134 169.5087738 C-64.59691658 172.1852547 -66.73457236 174.41137744 -69.33120728 176.59135437 C-74.03668077 180.64526753 -78.41032347 184.98580576 -82.79067993 189.38572693 C-84.09711708 190.69194504 -84.09711708 190.69194504 -85.4299469 192.02455139 C-87.79518767 194.39036541 -90.15820112 196.75836195 -92.52021575 199.1273942 C-95.00376381 201.61724479 -97.49019325 204.10421477 -99.9763031 206.59150696 C-104.67887489 211.29717546 -109.37889537 216.00538352 -114.07798034 220.71453369 C-119.41159544 226.05932697 -124.74804818 231.40128316 -130.08474767 236.74299645 C-139.21048666 245.87740406 -148.33411711 255.01391219 -157.45535278 264.15281677 C-158.58423164 265.28386337 -158.58423164 265.28386337 -159.73591614 266.4377594 C-160.77688965 267.4807732 -160.77688965 267.4807732 -161.83889294 268.54485798 C-163.39283874 270.10098069 -164.94832101 271.65556889 -166.50418091 273.20977783 C-168.52514789 275.23348321 -170.53445059 277.26765564 -172.53726196 279.30931091 C-176.49706681 283.34066118 -180.46933942 287.35948608 -184.44595337 291.37425232 C-186.15529842 293.10375896 -187.86104247 294.83683214 -189.56314087 296.57347107 C-192.03289099 299.09192385 -194.51549904 301.59707058 -197.00088501 304.1000824 C-198.12941643 305.25958153 -198.12941643 305.25958153 -199.28074646 306.44250488 C-204.70422218 311.86824373 -210.59537271 316.9515336 -218.70010376 317.03367615 C-224.35139761 316.7898607 -227.84835634 314.41744925 -231.70010376 310.40867615 C-234.74046983 306.2281728 -235.38125442 302.1894383 -235.14889526 297.1109314 C-233.76416907 288.77324317 -225.83687928 282.11362824 -220.09072876 276.4360199 C-218.87869781 275.2232412 -218.87869781 275.2232412 -217.6421814 273.98596191 C-215.94812893 272.29423413 -214.25042142 270.60615913 -212.54922485 268.9216156 C-209.93490184 266.33111274 -207.33439158 263.72730257 -204.73526001 261.12156677 C-203.08371047 259.4755872 -201.43139421 257.8303765 -199.77822876 256.1860199 C-198.99804382 255.40492355 -198.21785889 254.62382721 -197.41403198 253.81906128 C-196.69278137 253.10734268 -195.97153076 252.39562408 -195.22842407 251.66233826 C-194.27628021 250.71710548 -194.27628021 250.71710548 -193.30490112 249.7527771 C-191.70010376 248.40867615 -191.70010376 248.40867615 -189.70010376 248.40867615 C-189.44847819 247.83187229 -189.19685263 247.25506844 -188.93760204 246.66078568 C-187.53928055 244.11599575 -185.95760143 242.4230187 -183.90013123 240.37492371 C-183.10815338 239.58164169 -182.31617554 238.78835968 -181.50019836 237.97103882 C-180.63006607 237.10966812 -179.75993378 236.24829742 -178.86343384 235.36082458 C-177.48997803 233.98934013 -177.48997803 233.98934013 -176.08877563 232.59014893 C-174.09841366 230.60271827 -172.10493796 228.61848367 -170.10898781 226.63666534 C-166.94717035 223.49715774 -163.79249571 220.3505377 -160.63874817 217.20292664 C-155.64311657 212.21867674 -150.64283874 207.23911815 -145.64051217 202.26158834 C-136.70010009 193.36543421 -127.76512979 184.46382369 -118.83551329 175.55683351 C-115.7056847 172.43536572 -112.57306997 169.31673002 -109.43811667 166.20040941 C-107.95279354 164.72321645 -106.46863399 163.24486575 -104.98495483 161.76602173 C-103.18448128 159.97152099 -101.38219615 158.17883502 -99.57765198 156.38842773 C-95.27377416 152.09264244 -91.13614379 147.73816972 -87.22500706 143.0799551 C-85.2461832 140.9111837 -83.05805711 139.26774069 -80.66389465 137.58653259 C-71.02373441 130.8119769 -60.00528879 122.19768768 -56.89840698 110.35203552 C-54.64772237 96.72408333 -55.37123667 82.51198849 -56.47776794 68.79356384 C-57.0499069 60.79166911 -56.65782523 55.06587433 -51.48469543 48.66934204 C-48.5890302 45.44687543 -45.51259756 42.41218554 -42.42666626 39.3735199 C-41.2985493 38.24389859 -40.1713978 37.11331236 -39.04516602 35.98181152 C-36.69253694 33.62486871 -34.3297472 31.2787756 -31.95889282 28.94017029 C-28.92139609 25.94261239 -25.90927461 22.92095852 -22.90404701 19.89108944 C-20.5849693 17.55783764 -18.25392023 15.23685661 -15.91895676 12.9195118 C-14.80306502 11.80946501 -13.69072558 10.69583527 -12.58205032 9.57858086 C-11.03380099 8.02234362 -9.47038964 6.48315468 -7.90176392 4.94749451 C-6.57297714 3.62919899 -6.57297714 3.62919899 -5.21734619 2.28427124 C-2.70010376 0.40867615 -2.70010376 0.40867615 0 0 Z " fill="#9FC8D2" transform="translate(422.7001037597656,7.5913238525390625)"/>
<path d="M0 0 C0.91201172 -0.01224609 1.82402344 -0.02449219 2.76367188 -0.03710938 C10.53145509 -0.05381429 16.97711347 1.30817228 24.1875 4.3125 C25.0434375 4.66570312 25.899375 5.01890625 26.78125 5.3828125 C27.4103125 5.64835938 28.039375 5.91390625 28.6875 6.1875 C28.6875 6.8475 28.6875 7.5075 28.6875 8.1875 C27.20611572 9.65258789 27.20611572 9.65258789 25.16503906 11.34765625 C20.94336755 14.93979856 16.97808683 18.71964576 13.046875 22.625 C12.35740784 23.30876709 11.66794067 23.99253418 10.95758057 24.69702148 C9.51429051 26.13094138 8.07238955 27.56626071 6.63183594 29.00292969 C4.43610061 31.18889316 2.22991631 33.36395078 0.0234375 35.5390625 C-1.38607398 36.94204828 -2.79495034 38.34567247 -4.203125 39.75 C-4.85734436 40.39187256 -5.51156372 41.03374512 -6.18560791 41.69506836 C-10.56127486 46.09210381 -14.5767212 50.5518871 -15.84375 56.8125 C-15.76496661 62.80003769 -14.96938231 66.37581274 -11.3125 71.1875 C-7.08051447 75.11720085 -3.6127511 75.64558249 1.9296875 75.71875 C10.64114143 74.0406229 16.03667126 68.38061144 22 62.265625 C23.28148926 60.97564606 23.28148926 60.97564606 24.58886719 59.65960693 C27.2979993 56.92820067 29.992839 54.18317619 32.6875 51.4375 C34.52901955 49.5759041 36.37145808 47.7152168 38.21484375 45.85546875 C42.71642071 41.30994319 47.20636472 36.75317415 51.6875 32.1875 C54.6875 33.1875 54.6875 33.1875 56.25 36.3125 C56.77026135 37.58816908 57.24134169 38.88406368 57.6875 40.1875 C58.03941406 41.19296875 58.39132812 42.1984375 58.75390625 43.234375 C63.40742574 59.92851591 59.23286453 77.47922992 51.0546875 92.140625 C49.6875 94.1875 49.6875 94.1875 47.6875 95.1875 C47.0275 94.8575 46.3675 94.5275 45.6875 94.1875 C42.45032162 93.90600623 40.3644431 93.82638422 37.46875 95.37109375 C35.40375244 97.05967885 35.40375244 97.05967885 35.6484375 99.67578125 C35.85339844 101.07376953 35.85339844 101.07376953 36.0625 102.5 C36.20324263 107.5868409 36.20324263 107.5868409 34.07421875 110.06640625 C21.42725213 118.20722678 4.29295085 121.63840007 -10.45214844 118.77148438 C-18.98674725 116.74817903 -27.31780421 113.59609697 -34.3125 108.1875 C-34.8075 107.1975 -34.8075 107.1975 -35.3125 106.1875 C-34.9825 105.5275 -34.6525 104.8675 -34.3125 104.1875 C-34.16874578 100.80927584 -34.23713652 98.41359045 -35.3125 95.1875 C-35.98796875 95.12691406 -36.6634375 95.06632812 -37.359375 95.00390625 C-38.69742188 94.87822266 -38.69742188 94.87822266 -40.0625 94.75 C-40.94421875 94.66878906 -41.8259375 94.58757812 -42.734375 94.50390625 C-43.58515625 94.39949219 -44.4359375 94.29507813 -45.3125 94.1875 C-46.00730469 94.14238281 -46.70210937 94.09726562 -47.41796875 94.05078125 C-50.5181914 92.63810247 -51.49825397 89.75997584 -52.875 86.8125 C-53.17801025 86.17618652 -53.48102051 85.53987305 -53.79321289 84.88427734 C-61.17596768 68.95191289 -61.25290311 52.61422849 -55.3125 36.1875 C-53.50442189 31.67929464 -51.75193362 27.67244598 -48.3125 24.1875 C-45.51256218 23.53173644 -43.40090402 23.65306449 -40.55859375 24.0078125 C-38.1189061 24.42620236 -38.1189061 24.42620236 -35.6875 22.5625 C-33.93663331 19.53827572 -33.94587227 17.63380063 -34.3125 14.1875 C-34.6425 13.1975 -34.9725 12.2075 -35.3125 11.1875 C-23.64957543 3.74308006 -13.8184227 0.009643 0 0 Z " fill="#E54D3D" transform="translate(204.3125,247.8125)"/>
<path d="M0 0 C1.81329346 0.60388184 1.81329346 0.60388184 3.81329346 2.60388184 C4.2219696 4.90377808 4.2219696 4.90377808 3.81329346 7.60388184 C1.93769836 10.12112427 1.93769836 10.12112427 -0.7255249 12.80554199 C-1.20850037 13.29888535 -1.69147583 13.7922287 -2.18908691 14.30052185 C-3.78906733 15.92759831 -5.40676644 17.53559845 -7.02655029 19.14294434 C-8.14908261 20.27138734 -9.27094496 21.40049716 -10.39216614 22.53024292 C-12.7471885 24.89715301 -15.11128043 27.25452251 -17.48187256 29.60583496 C-20.50668556 32.60784787 -23.50609291 35.63384831 -26.49880123 38.6678257 C-28.81226302 41.00698077 -31.13976873 43.3317584 -33.47152901 45.65266037 C-34.58235526 46.76200731 -35.68865685 47.87590544 -36.79014397 48.99452591 C-44.7051218 57.01243672 -50.49109707 61.50539777 -62.07366943 61.94445801 C-64.26895786 61.94398891 -66.46428678 61.92739197 -68.65936279 61.89685059 C-69.82301865 61.89260574 -70.9866745 61.8883609 -72.18559265 61.88398743 C-75.87370712 61.86729969 -79.5612594 61.82966502 -83.24920654 61.79138184 C-85.7615684 61.77632224 -88.27393889 61.76263607 -90.78631592 61.75036621 C-96.91996874 61.71742861 -103.05329746 61.66732841 -109.18670654 61.60388184 C-108.41544434 60.70661377 -107.64418213 59.8093457 -106.84954834 58.8848877 C-104.85410241 56.56164628 -102.87216975 54.22876516 -100.90438843 51.88198853 C-93.81434679 43.44641511 -86.5232636 35.21784017 -78.99920654 27.16638184 C-78.40953598 26.53503326 -77.81986542 25.90368469 -77.21232605 25.25320435 C-53.82609884 0.41914187 -34.60546533 -7.42212925 0 0 Z " fill="#3B97D3" transform="translate(500.18670654296875,84.3961181640625)"/>
<path d="M0 0 C2.29989624 0.40867615 2.29989624 0.40867615 4.29989624 2.40867615 C9.59057208 16.96799655 10.93922028 36.91723604 5.25876617 51.41281891 C-1.34139099 65.1508359 -14.72276969 76.32120157 -25.63760376 86.59617615 C-26.35290504 87.27012169 -27.06820633 87.94406723 -27.80518341 88.63843536 C-35.09773874 95.47827799 -42.5046449 102.18316808 -50.07876587 108.71018982 C-50.63619539 109.19122099 -51.19362492 109.67225216 -51.76794624 110.16786003 C-55.57422244 113.40867615 -55.57422244 113.40867615 -56.70010376 113.40867615 C-56.7764782 106.02552453 -56.8288396 98.64247568 -56.86489868 91.25901794 C-56.87993905 88.74986463 -56.90037648 86.2407374 -56.92642212 83.73167419 C-56.9630139 80.1148279 -56.97987824 76.49833073 -56.99307251 72.8813324 C-57.00855637 71.76847366 -57.02404022 70.65561493 -57.03999329 69.5090332 C-57.04258301 57.38951705 -54.19886535 51.13228515 -45.71270752 42.61325073 C-44.61804759 41.53264392 -43.52268351 40.45275001 -42.42666626 39.3735199 C-41.2985493 38.24389859 -40.1713978 37.11331236 -39.04516602 35.98181152 C-36.69253694 33.62486871 -34.3297472 31.2787756 -31.95889282 28.94017029 C-28.92139609 25.94261239 -25.90927461 22.92095852 -22.90404701 19.89108944 C-20.5849693 17.55783764 -18.25392023 15.23685661 -15.91895676 12.9195118 C-14.80306502 11.80946501 -13.69072558 10.69583527 -12.58205032 9.57858086 C-11.03380099 8.02234362 -9.47038964 6.48315468 -7.90176392 4.94749451 C-6.57297714 3.62919899 -6.57297714 3.62919899 -5.21734619 2.28427124 C-2.70010376 0.40867615 -2.70010376 0.40867615 0 0 Z " fill="#3B97D2" transform="translate(422.7001037597656,7.5913238525390625)"/>
<path d="M0 0 C4.06847602 0.65386222 5.72388652 1.54143533 8.5 4.5625 C9.83433824 9.03321287 9.62331413 13.61466158 9.58520508 18.23657227 C9.58043152 19.53013138 9.58043152 19.53013138 9.57556152 20.849823 C9.56300192 23.69292268 9.54212336 26.53586948 9.51953125 29.37890625 C9.5090957 30.83738637 9.5090957 30.83738637 9.49844933 32.32533073 C9.46110858 37.46524655 9.41711678 42.60505763 9.36791992 47.74487305 C9.31844548 53.05675887 9.29234556 58.36849402 9.27148914 63.6805582 C9.25114392 67.7650253 9.21327894 71.84919557 9.1706295 75.93348503 C9.1532735 77.89226506 9.14259091 79.85111593 9.13868141 81.80996895 C9.13161595 84.54646392 9.09974168 87.2816059 9.06176758 90.01782227 C9.06695656 91.23279137 9.06695656 91.23279137 9.07225037 92.4723053 C8.99941188 96.01574223 8.80982558 98.14182152 6.67973328 101.03404236 C3.56319639 103.21939901 1.28778079 103.5625 -2.5 103.5625 C-5.17333984 102.12084961 -5.17333984 102.12084961 -7.5 99.5625 C-8.06005877 96.41438642 -8.27371073 93.79171724 -8.2890625 90.62890625 C-8.31223541 89.68382706 -8.33540833 88.73874786 -8.35928345 87.76502991 C-8.43283148 84.36417349 -8.46596559 80.96397536 -8.5 77.5625 C-8.52159259 76.19616863 -8.54438484 74.8298558 -8.5682373 73.46356201 C-8.71681661 64.9270172 -8.80942889 56.39174617 -8.8409996 47.85394859 C-8.85637579 43.73330075 -8.88197205 39.61330546 -8.93212891 35.49291992 C-8.98136808 31.44097387 -9.00619751 27.38957551 -9.01332474 23.33734322 C-9.02001508 21.80910722 -9.03517927 20.28088258 -9.05921555 18.75282097 C-9.0908055 16.63134274 -9.09092078 14.51203199 -9.08349609 12.39038086 C-9.09158295 11.18876816 -9.0996698 9.98715546 -9.10800171 8.74913025 C-8.09198409 3.42402601 -5.28725799 0.84973789 0 0 Z " fill="#C03A2B" transform="translate(204.5,101.4375)"/>
<path d="M0 0 C2.15590345 3.67302069 2.36199963 5.67811339 1.6875 9.875 C-0.29747637 12.58724852 -1.87870493 14.54707347 -5.26182747 15.32083511 C-7.67101709 15.48680409 -10.03118246 15.48517982 -12.44555664 15.43017578 C-13.35669724 15.42918381 -14.26783783 15.42819183 -15.20658875 15.4271698 C-18.21271431 15.41691004 -21.21693929 15.36980476 -24.22265625 15.3203125 C-26.3134177 15.30123147 -28.40419346 15.28366448 -30.49497986 15.26754761 C-34.87405722 15.22797659 -39.25241955 15.17019896 -43.63110352 15.09960938 C-49.24571113 15.01053709 -54.85960631 14.966425 -60.47480106 14.93586922 C-64.79101114 14.90748674 -69.10668742 14.85546985 -73.422575 14.79626083 C-75.49296845 14.77068618 -77.56346602 14.75245664 -79.63398933 14.74167252 C-82.52654864 14.7230313 -85.41685551 14.67265036 -88.30883789 14.61376953 C-89.16557098 14.61453995 -90.02230408 14.61531036 -90.90499878 14.61610413 C-95.06344454 14.49747787 -96.70314795 14.44363342 -99.84007263 11.5163269 C-101.66833834 8.23667624 -102.00583892 6.57280755 -101.3125 2.875 C-98.50815165 -0.84528955 -97.0178445 -2.00954617 -92.36608887 -2.77096558 C-90.79585341 -2.80606768 -89.22486453 -2.81403297 -87.65429688 -2.80029297 C-86.79353043 -2.81238297 -85.93276398 -2.82447296 -85.0459137 -2.83692932 C-82.20735289 -2.8707599 -79.3699931 -2.86934737 -76.53125 -2.8671875 C-74.55495539 -2.88284883 -72.57867598 -2.90054785 -70.60241699 -2.92019653 C-66.463231 -2.95645553 -62.32439538 -2.97684515 -58.18505859 -2.984375 C-52.88196278 -2.99404011 -47.57947065 -3.02946224 -42.27657318 -3.07504082 C-37.21567849 -3.11789575 -32.15473658 -3.1499342 -27.09375 -3.1796875 C-25.6468705 -3.18893061 -25.6468705 -3.18893061 -24.17076111 -3.19836044 C-21.43739029 -3.21343448 -18.7041088 -3.2210693 -15.97070312 -3.22607422 C-15.164319 -3.23116501 -14.35793488 -3.2362558 -13.52711487 -3.24150085 C-3.5248063 -3.23901119 -3.5248063 -3.23901119 0 0 Z " fill="#C03A2B" transform="translate(408.3125,301.125)"/>
<path d="M0 0 C2.6784668 1.47999573 2.6784668 1.47999573 5 4 C5.52162129 7.11667999 5.72160285 9.6989338 5.70703125 12.82006836 C5.72233383 13.70994949 5.73763641 14.59983063 5.75340271 15.51667786 C5.79749047 18.45800446 5.80574876 21.39821244 5.8125 24.33984375 C5.8332363 26.38482962 5.85572155 28.42979844 5.87988281 30.4747467 C5.92519719 34.76111802 5.95355637 39.04716025 5.96923828 43.33374023 C5.99008247 48.82654029 6.04625499 54.31826449 6.11430359 59.81066036 C6.16385622 64.03391547 6.19799605 68.25718221 6.22714233 72.48062325 C6.24233482 74.50564506 6.26153652 76.53064092 6.28482056 78.55558586 C6.31440088 81.38739861 6.32404675 84.21858769 6.328125 87.05053711 C6.34040634 87.88654449 6.35268768 88.72255188 6.36534119 89.58389282 C6.34781591 94.21167748 6.01018264 97.24188065 3 101 C0.71273777 102.14363112 -0.82852427 102.26501932 -3.375 102.375 C-4.14585937 102.42398438 -4.91671875 102.47296875 -5.7109375 102.5234375 C-8 102 -8 102 -10.11645508 100.03236389 C-12.68528993 95.89673541 -12.52427105 92.73067781 -12.42578125 87.95874023 C-12.42303696 87.05735321 -12.42029266 86.15596619 -12.41746521 85.2272644 C-12.40281292 82.25382972 -12.35860978 79.28169485 -12.3125 76.30859375 C-12.29274498 74.24025058 -12.27420747 72.17189545 -12.25683594 70.10353088 C-12.21579351 65.771633 -12.16015608 61.44023126 -12.09423828 57.10864258 C-12.01086722 51.55464389 -11.96346711 46.00102828 -11.92692566 40.44654751 C-11.89493077 36.17673028 -11.84406099 31.90729849 -11.78744507 27.637743 C-11.76253868 25.58966334 -11.74348896 23.54150386 -11.7303772 21.49331474 C-11.70919886 18.63218171 -11.6626781 15.77255585 -11.609375 12.91186523 C-11.60812119 12.06448288 -11.60686737 11.21710052 -11.60557556 10.34403992 C-11.51018698 6.56215471 -11.43576495 4.60366618 -9.17675781 1.47425842 C-5.95498224 -0.70776189 -3.80342905 -0.5338146 0 0 Z " fill="#C03A2B" transform="translate(208,410)"/>
<path d="M0 0 C1.31975327 0.00477356 1.31975327 0.00477356 2.66616821 0.00964355 C5.58570075 0.02226806 8.50508846 0.0431419 11.42456055 0.06567383 C12.42044882 0.07263086 13.41633709 0.0795879 14.44240379 0.08675575 C19.71313275 0.12418572 24.98376164 0.16821754 30.25439453 0.21728516 C35.70190975 0.26663448 41.1492788 0.29282044 46.59696674 0.31371593 C50.7827008 0.33408167 54.96814635 0.37195789 59.1537075 0.41457558 C61.16190181 0.4319251 63.17016511 0.4426127 65.17843056 0.44652367 C67.98927184 0.45360121 70.79880393 0.48550996 73.609375 0.5234375 C74.8540731 0.51824852 74.8540731 0.51824852 76.12391663 0.51295471 C80.11201222 0.59253294 82.06177444 0.80846444 85.51506042 2.99531555 C87.4987793 5.08520508 87.4987793 5.08520508 88.12768555 7.08520508 C88.09481445 8.07520508 88.09481445 8.07520508 88.0612793 9.08520508 C88.06256836 9.74520508 88.06385742 10.40520508 88.06518555 11.08520508 C87.20740848 14.11404549 86.01661464 15.17496863 83.4987793 17.08520508 C80.53661701 17.71131907 77.60645819 17.69011226 74.58691406 17.69458008 C73.68727936 17.71134293 72.78764465 17.72810577 71.86074829 17.74537659 C68.88713646 17.79525841 65.91414332 17.81616688 62.94018555 17.83520508 C60.87278341 17.86034644 58.8053951 17.88664835 56.73802185 17.9140625 C52.40463176 17.96692989 48.0714097 18.00542584 43.73779297 18.03393555 C38.18438361 18.0716592 32.6321413 18.1453247 27.07927036 18.22982788 C22.80972626 18.29076712 18.54015993 18.33242527 14.27033806 18.36828613 C12.22295473 18.38784096 10.17561988 18.41343996 8.12838936 18.44519043 C5.26536142 18.48673508 2.40333006 18.50226897 -0.45996094 18.51098633 C-1.72799812 18.53715782 -1.72799812 18.53715782 -3.02165222 18.56385803 C-7.05206179 18.54912147 -9.02501071 18.38233771 -12.5269928 16.19726562 C-14.78202179 13.78479959 -15.15842886 12.83870886 -15.0637207 9.58520508 C-14.88541722 6.30009855 -14.65685456 5.29271689 -12.6262207 2.58520508 C-8.4708161 -0.3480217 -4.93547802 -0.0393354 0 0 Z " fill="#C03A2B" transform="translate(14.501220703125,297.914794921875)"/>
<path d="M0 0 C1.75 1.1875 1.75 1.1875 3.75 4.1875 C3.9746684 7.70730493 3.92523535 10.85347889 2.75 14.1875 C1.20996094 15.79956055 1.20996094 15.79956055 -0.765625 17.38671875 C-6.29241397 22.00511265 -11.22997046 27.15048265 -16.24609375 32.31054688 C-16.96410156 33.03951172 -17.68210938 33.76847656 -18.421875 34.51953125 C-19.0622168 35.17671143 -19.70255859 35.8338916 -20.36230469 36.51098633 C-23.19297707 39.02498364 -25.44856648 40.06813756 -29.1875 40.625 C-32.25 40.1875 -32.25 40.1875 -35.125 38.0625 C-37.25 35.1875 -37.25 35.1875 -37.8125 32.25 C-36.71597959 26.28005555 -32.51708356 22.21114528 -28.30078125 18.078125 C-27.37072266 17.15902344 -26.44066406 16.23992187 -25.48242188 15.29296875 C-24.50946049 14.34079224 -23.53614929 13.38897307 -22.5625 12.4375 C-20.6387072 10.55008875 -18.71911984 8.65859934 -16.80078125 6.765625 C-15.95169189 5.93450195 -15.10260254 5.10337891 -14.2277832 4.24707031 C-12.20469904 2.3443554 -12.20469904 2.3443554 -11.25 0.1875 C-7.31134079 -1.1253864 -3.95356946 -1.42767786 0 0 Z " fill="#D1D4D1" transform="translate(167.25,341.8125)"/>
<path d="M0 0 C6.86731749 5.03449965 12.87070403 11.55512855 18.9375 17.5 C19.41743408 17.95681152 19.89736816 18.41362305 20.3918457 18.88427734 C21.80551356 20.23087772 23.19798898 21.59961535 24.58984375 22.96875 C25.41347412 23.76732422 26.23710449 24.56589844 27.08569336 25.38867188 C29.47714321 28.65087665 29.86754505 30.98734277 30 35 C28.23358828 37.80189446 26.96950178 39.51524911 24 41 C21.375 41.5 21.375 41.5 18 41 C11.5795719 36.41218851 6.13991552 30.2307708 0.625 24.625 C-0.96383525 23.01074338 -2.55486903 21.39864674 -4.1484375 19.7890625 C-4.84114746 19.08475098 -5.53385742 18.38043945 -6.24755859 17.65478516 C-7.91166413 15.92378526 -7.91166413 15.92378526 -10 15 C-11.23703923 11.28888231 -11.68187405 7.85103869 -11 4 C-7.74423303 0.16968592 -4.93198588 -1.06376166 0 0 Z " fill="#D1D3D0" transform="translate(250,341)"/>
<path d="M0 0 C4.75516086 1.28163745 6.92006836 3.43193138 10.24951172 6.92944336 C11.13003708 7.81914574 11.13003708 7.81914574 12.02835083 8.7268219 C13.89004476 10.61534734 15.72954493 12.52397559 17.56982422 14.43334961 C18.82890284 15.7139634 20.08930692 16.99327546 21.35107422 18.27124023 C31.51102599 28.61736291 31.51102599 28.61736291 32.06982422 32.80834961 C31.69482422 35.99584961 31.69482422 35.99584961 29.63232422 38.87084961 C25.9994841 41.49886161 24.08865549 41.48405308 19.69482422 40.99584961 C16.38543694 39.89272052 15.74194412 39.138055 13.59326172 36.51928711 C9.43021724 31.61166865 4.90479469 27.13150938 0.31982422 22.62084961 C-1.2944324 21.03201435 -2.90652904 19.44098058 -4.51611328 17.84741211 C-5.2204248 17.15470215 -5.92473633 16.46199219 -6.65039062 15.74829102 C-8.98342936 13.27756927 -9.28787573 12.12683568 -9.74267578 8.68334961 C-9.30517578 4.99584961 -9.30517578 4.99584961 -6.74267578 1.99584961 C-3.30517578 -0.00415039 -3.30517578 -0.00415039 0 0 Z " fill="#D1D4D1" transform="translate(139.30517578125,232.004150390625)"/>
</svg>
